<?xml version="1.0" encoding="utf-8"?>
<!-- Generator: Adobe Illustrator 24.0.1, SVG Export Plug-In . SVG Version: 6.00 Build 0)  -->
<svg version="1.1" id="Layer_1" xmlns="http://www.w3.org/2000/svg" xmlns:xlink="http://www.w3.org/1999/xlink" x="0px" y="0px"
	 viewBox="0 0 201.9 79.1" style="enable-background:new 0 0 201.9 79.1;" xml:space="preserve">
<style type="text/css">
	.st0{fill-rule:evenodd;clip-rule:evenodd;fill:#BE202F;}
</style>
<g>
	<path d="M12.1,73.4H4.4l-1.7,3.8H1.8l6-13.2h0.9l6.1,13.2h-0.9L12.1,73.4z M11.8,72.6l-3.5-7.8l-3.5,7.8H11.8z"/>
	<path d="M21.2,64.8c-2.1,0-3.5,0.9-3.5,2.3c0,4,7.8,1.9,7.7,6.8c0,2-1.8,3.4-4.6,3.4c-1.8,0-3.6-0.8-4.7-1.9l0.4-0.7
		c1.1,1.1,2.8,1.8,4.3,1.8c2.3,0,3.7-1,3.7-2.5c0-4.1-7.7-2-7.7-6.8c0-1.9,1.7-3.1,4.4-3.1c1.3,0,2.8,0.4,3.8,1.1l-0.4,0.7
		C23.7,65.1,22.4,64.8,21.2,64.8z"/>
	<path d="M30.6,64v13.2h-0.8V64H30.6z"/>
	<path d="M44.1,73.4h-7.7l-1.7,3.8h-0.9l6-13.2h0.9l6.1,13.2h-0.9L44.1,73.4z M43.7,72.6l-3.5-7.8l-3.5,7.8H43.7z"/>
	<path d="M57.4,64l5.3,10.4L68,64h1.1v13.2h-0.8l0-12.1l-5.4,10.7h-0.4l-5.5-10.7v12.1h-0.8V64H57.4z"/>
	<path d="M82.6,73.4h-7.7l-1.7,3.8h-0.9l6-13.2h0.9l6.1,13.2h-0.9L82.6,73.4z M82.2,72.6l-3.5-7.8l-3.5,7.8H82.2z"/>
	<path d="M89.3,64l8.8,12V64h0.8v13.2H98l-8.8-12v12h-0.8V64H89.3z"/>
	<path d="M112.4,73.4h-7.7l-1.7,3.8h-0.9l6-13.2h0.9l6.1,13.2h-0.9L112.4,73.4z M112,72.6l-3.5-7.8l-3.5,7.8H112z"/>
	<path d="M127.3,70.7h0.7v4.8c-1.2,1.1-2.9,1.7-4.7,1.7c-3.8,0-6.8-3-6.8-6.6s3.1-6.6,6.9-6.6c1.8,0,3.4,0.7,4.7,1.7l-0.5,0.6
		c-1.1-1-2.6-1.6-4.2-1.6c-3.3,0-6.1,2.6-6.1,5.9c0,3.3,2.7,5.9,6.1,5.9c1.5,0,2.9-0.5,3.9-1.4V70.7z"/>
	<path d="M141.5,64v0.8h-7.7V70h6.9v0.8h-6.9v5.6h8v0.8H133V64H141.5z"/>
	<path d="M147.1,64l5.3,10.4l5.3-10.4h1.1v13.2H158l0-12.1l-5.4,10.7h-0.4l-5.5-10.7v12.1H146V64H147.1z"/>
	<path d="M172.6,64v0.8h-7.7V70h6.9v0.8h-6.9v5.6h8v0.8H164V64H172.6z"/>
	<path d="M178,64l8.8,12V64h0.8v13.2h-0.9l-8.8-12v12H177V64H178z"/>
	<path d="M200.6,64v0.8h-4.5v12.5h-0.8V64.8h-4.5V64H200.6z"/>
</g>
<g>
	<path class="st0" d="M54.1,53.5h12.1l16.9-31.4l18.1,31.4h12.1l-30.2-52L54.1,53.5z"/>
	<path class="st0" d="M139.5,53.5V19.7L120.2,33L102,19.7L89.9,1.6l31.4,19.3l27.8-19.3v52H139.5z"/>
</g>
</svg>
